<?xml version="1.0" encoding="UTF-8" standalone="no"?>
<!-- Created with Inkscape (http://www.inkscape.org/) -->

<svg
   version="1.1"
   id="svg2"
   xml:space="preserve"
   width="600"
   height="400"
   viewBox="0 0 600 400"
   sodipodi:docname="sport.eps"
   xmlns:inkscape="http://www.inkscape.org/namespaces/inkscape"
   xmlns:sodipodi="http://sodipodi.sourceforge.net/DTD/sodipodi-0.dtd"
   xmlns="http://www.w3.org/2000/svg"
   xmlns:svg="http://www.w3.org/2000/svg"><defs
     id="defs6" /><sodipodi:namedview
     id="namedview4"
     pagecolor="#ffffff"
     bordercolor="#666666"
     borderopacity="1.0"
     inkscape:pageshadow="2"
     inkscape:pageopacity="0.0"
     inkscape:pagecheckerboard="0" /><g
     id="g8"
     inkscape:groupmode="layer"
     inkscape:label="ink_ext_XXXXXX"
     transform="matrix(1.3333333,0,0,-1.3333333,0,400)"><g
       id="g10"
       transform="scale(0.1)"><path
         d="M 0,0 H 4500 V 3000 H 0 V 0"
         style="fill:#ffffff;fill-opacity:1;fill-rule:evenodd;stroke:none"
         id="path12" /><path
         d="m 3678.89,1089.57 c 133.43,-16.19 236.85,-129.859 236.85,-267.66 0,-148.89 -120.76,-269.64 -269.65,-269.64 -118.26,0 -218.73,76.171 -255.09,182.101 38.57,-96.582 132.98,-164.84 243.3,-164.84 144.65,0 261.91,117.278 261.91,261.918 0,129.43 -93.92,236.951 -217.32,258.121"
         style="fill:#000000;fill-opacity:1;fill-rule:nonzero;stroke:none"
         id="path14" /><path
         d="M 1026.57,2320.37 C 667.145,2209.33 401.27,1991.25 228.457,1626.71 h -3.844 c 174.789,375.17 434.879,620.93 800.917,740.84 -0.69,-15.67 -0.37,-31.44 1.04,-47.18"
         style="fill:#000000;fill-opacity:1;fill-rule:nonzero;stroke:none"
         id="path16" /><path
         d="M 1063.67,2190.86 C 721.445,2122.93 461.602,1954.92 270.664,1626.71 h -4.121 c 189.719,332.09 441.254,524.52 779.797,604.22 4.91,-13.55 10.68,-26.93 17.33,-40.07"
         style="fill:#000000;fill-opacity:1;fill-rule:nonzero;stroke:none"
         id="path18" /><path
         d="m 1181.43,2056.63 c -248.539,16.13 -619.297,-28.29 -872.899,-429.92 h -6.761 c 183.937,304.49 508.441,463.89 816.77,484.43 19.02,-20.86 40.16,-39.07 62.89,-54.51"
         style="fill:#000000;fill-opacity:1;fill-rule:nonzero;stroke:none"
         id="path20" /><path
         d="M 1061.78,2509.3 C 662.188,2334.41 375.035,2019.53 195.492,1626.71 h -3.75 c 191.813,426.93 493,805.04 937.708,977.37 -28.05,-28.13 -50.72,-60.22 -67.67,-94.78"
         style="fill:#000000;fill-opacity:1;fill-rule:nonzero;stroke:none"
         id="path22" /><path
         d="m 1678.4,2559.14 c 103.38,-154.8 64.34,-365.31 -91.11,-472.01 -155.45,-106.71 -369.54,-61.9 -472.38,95.64 -102.85,157.53 -58.86,366.07 95.94,469.45 154.81,103.39 364.17,61.71 467.55,-93.08"
         style="fill:#ffffff;fill-opacity:1;fill-rule:evenodd;stroke:none"
         id="path24" /><path
         d="m 1376,2426.06 0.8,0.06 c 32.86,2.27 65.81,9.33 98.37,20.85 20.38,7.2 40.6,16.15 60.56,26.75 -6.33,10.83 -13.61,16 -37.78,6.58 -7.46,-3.82 -15.07,-7.23 -22.78,-10.23 -32.16,-12.55 -66.07,-18.27 -98.37,-19.64 -33.13,-1.41 -64.56,1.76 -90.72,6.85 -6.51,1.27 -12.71,2.66 -18.51,4.12 -26.38,13.01 -37.8,13.14 -49.71,-3.38 22.14,-11.35 45,-19.6 68.22,-24.97 29.61,-6.84 59.82,-9 89.92,-6.99"
         style="fill:#000000;fill-opacity:1;fill-rule:nonzero;stroke:none"
         id="path26" /><path
         d="m 1544.87,2441 c 4.5,3.32 8.05,5.32 5.41,9.68 -2.13,3.59 -4.88,8.16 -7.39,11.51 -2.45,2.97 -6.05,3.08 -10.76,0.33 -19.43,-10.29 -38.4,-18.84 -56.96,-25.74 -34.16,-12.7 -66.89,-19.82 -98.37,-22.03 -31.44,-2.21 -61.62,0.48 -90.72,7.41 -22.66,5.39 -44.66,13.35 -66.08,23.56 -3.93,2.09 -7.3,2.24 -9.52,-2.4 -1.8,-2.96 -3.64,-6.13 -5.42,-9.06 -1.85,-3.47 0.55,-6.76 3.79,-8.71 29.24,-21.13 54.99,-44.04 77.23,-68.77 43.91,-48.82 74.16,-104.75 90.72,-168.22 2.05,-7.87 3.89,-15.86 5.52,-23.97 1.29,-2.89 2.76,-5.54 6.31,-5.59 2.6,0.24 6.86,0.63 9.47,0.88 4.02,0.34 6.28,2.44 6.47,5.25 -3.88,83.82 23.76,150.62 70.6,207.58 20.04,24.38 43.59,46.96 69.7,68.29"
         style="fill:#000000;fill-opacity:1;fill-rule:nonzero;stroke:none"
         id="path28" /><path
         d="m 1199.72,2423.33 c -7.01,-11.69 -1.83,-23.56 8.52,-31.92 29.8,-24.87 55.85,-52.47 77.84,-83.14 27.44,-38.26 48.58,-81.3 62.89,-129.84 6.79,-13.53 15.65,-19.65 26.57,-18.36 -9.52,63.74 -43.45,130.84 -89.46,185.63 -25.73,30.64 -55.24,57.43 -86.36,77.63"
         style="fill:#000000;fill-opacity:1;fill-rule:nonzero;stroke:none"
         id="path30" /><path
         d="m 1581.76,2096.93 c -0.43,-0.29 -0.89,-0.57 -1.32,-0.84 -37.23,-15.99 -75.05,-25.98 -105.27,-9.36 -14.49,7.97 -27.24,22.06 -37.32,44.54 -4.77,11.61 -14.02,13.93 -25.3,12.03 9.12,-43.87 33.1,-65.8 62.62,-72.5 3.92,-0.89 7.92,-1.5 12,-1.87 26.9,-2.42 52.61,4.24 82.47,20.3 -11.74,-7.13 -23.75,-13.44 -35.97,-18.96 -22.35,-6.92 -41.8,-9.11 -58.5,-6.83 -35.04,4.8 -57.85,29.32 -69.22,71.18 -0.88,3.48 -1.86,6.98 -7.69,6.17 -3.32,-0.4 -6.87,-1.06 -10.27,-1.72 -5.38,-1.45 -6.07,-4.4 -5.62,-6.96 1.52,-19.15 0.16,-36.83 -5.57,-50.98 -7.36,-18.15 -21.92,-30.5 -46.81,-32.77 -5.31,1.12 -10.6,2.36 -15.83,3.75 15.7,-0.91 29.35,3.33 40.26,12.44 18.79,15.73 23.52,47.07 20.08,74.39 -13.41,-0.42 -20.46,-5.33 -21.16,-14.71 -3.27,-49.37 -27.91,-65.73 -67.26,-63 l -1.46,0.11 c -63.76,23.23 -120.96,66.18 -161.51,126.92 -38.62,57.79 -56.58,123.35 -55.67,187.95 10.92,44.3 37.01,64.28 89.21,44.27 9.28,-3.48 16.61,1 22.01,13.44 -25.03,15.29 -56.97,24.67 -79.07,13.89 -15.63,-7.59 -26.4,-22.39 -30.55,-43.19 0.67,6.71 1.56,13.41 2.63,20.07 19.16,47.72 60.21,43.5 103.32,19.63 2.3,-1.53 5.41,-2.19 8.8,2.25 1.91,2.9 3.85,5.95 5.45,8.91 2.94,5.12 -0.07,7.59 -3.09,9.97 -52.91,42.82 -60.68,91.48 -15.31,146.75 7.79,7.35 16,14.39 24.6,21.05 -21.93,-18.99 -35.52,-38.59 -42.38,-62.31 -9.94,-34.28 -0.08,-71.46 43.88,-103.1 6.01,9.77 7.23,19.5 -2.19,29.14 -54.73,59.35 -24.71,107.5 17.85,148.71 0.62,0.41 1.21,0.83 1.81,1.24 22.85,15.26 46.93,27.28 71.67,36.21 29.58,10.66 60.12,16.88 90.72,18.82 33.12,2.11 66.3,-0.79 98.37,-8.47 24.3,-5.81 47.95,-14.36 70.46,-25.56 42.2,-39.23 80.57,-79.63 12.7,-152.16 -6.45,-6.12 -9.62,-13.88 -6.57,-19.02 2.4,-3.8 3.75,-5.98 6.14,-9.78 47.9,35.64 60.85,77.43 53.5,107.36 -4.86,19.79 -21.47,44 -40.57,59.65 3.38,-2.09 6.73,-4.19 10.06,-6.39 51.69,-48.37 64.61,-100.77 -13.91,-162.64 -4.13,-2.87 -4.49,-6.18 -1.96,-9.78 1.96,-2.93 3.9,-5.85 5.88,-8.78 2.21,-3.14 5.26,-3.68 9.15,-1.59 61.66,37.21 110.5,34.34 141.94,-25.98 1.23,-5.92 2.29,-11.83 3.17,-17.78 -4.62,15.21 -13.38,30.4 -26.52,39.8 -36.77,26.3 -73.88,18.25 -120.12,-5.9 2.58,-3.67 4.1,-5.74 6.68,-9.41 3.6,-4.79 12.15,-5.11 20.27,-1.48 83.37,35.13 114.18,-20.53 122.77,-57.41 0.07,0.39 0.11,0.77 0.19,1.17 5.28,-112.06 -46.6,-224.04 -146.67,-290.88 z m 100.06,464.5 c -50.18,75.13 -125.04,123.9 -206.65,142.81 -32.11,7.44 -65.26,10.25 -98.37,8.22 -30.57,-1.89 -61.09,-7.89 -90.72,-18.2 -26.78,-9.32 -52.82,-22.14 -77.49,-38.62 -156.66,-104.63 -201.2,-315.7 -97.1,-475.13 43.01,-65.89 105.26,-112.28 174.59,-136.43 29.28,-10.19 59.82,-16.43 90.72,-18.48 32.76,-2.18 65.91,0.35 98.37,7.81 39.87,9.17 78.68,25.77 114.42,50.3 157.35,107.99 196.85,321.05 92.23,477.72"
         style="fill:#000000;fill-opacity:1;fill-rule:nonzero;stroke:none"
         id="path32" /><path
         d="m 1475.17,2362.23 c -10.68,-14.21 -20.35,-30.02 -28.9,-48.52 -22.76,-49.22 -33.36,-95.15 -31.57,-151.9 19.81,4.65 21.81,17.51 23.2,47.55 4.64,31.54 16.66,68.87 37.27,105.54 17.6,31.31 41.47,62.13 72.41,88.42 17.98,18.7 15.99,27.43 8.41,37.43 -30.95,-25.52 -58.17,-48.38 -80.82,-78.52"
         style="fill:#000000;fill-opacity:1;fill-rule:nonzero;stroke:none"
         id="path34" /><path
         d="m 2366.41,2532.05 -622.58,-875.45 572.95,697.52 c 2.22,60.77 21.95,119.77 49.63,177.93"
         style="fill:#000000;fill-opacity:1;fill-rule:evenodd;stroke:none"
         id="path36" /><path
         d="m 2317.09,2444.43 -316,-444.35 303.32,369.26 c 1.27,25.56 5.82,50.62 12.68,75.09"
         style="fill:#ffffff;fill-opacity:1;fill-rule:evenodd;stroke:none"
         id="path38" /><path
         d="m 1807.53,1648.6 979.27,424.35 c -73.95,-23.31 -142.35,-38.98 -199.18,-30.36 L 1807.53,1648.6"
         style="fill:#000000;fill-opacity:1;fill-rule:evenodd;stroke:none"
         id="path40" /><path
         d="m 2249.82,1858.31 393.99,170.72 c -18.97,-1.89 -37.7,-2.11 -55.51,0.23 l -338.48,-170.95"
         style="fill:#ffffff;fill-opacity:1;fill-rule:evenodd;stroke:none"
         id="path42" /><path
         d="m 1776.88,1667.89 396.06,465.59 c -0.28,-12.81 2.82,-24.6 10.88,-34.88 l -406.94,-430.71"
         style="fill:#000000;fill-opacity:1;fill-rule:evenodd;stroke:none"
         id="path44" /><path
         d="m 1803,1673.16 620.5,453.11 c 4.88,-8.93 17.67,-19.22 28.57,-25.78 L 1803,1673.16"
         style="fill:#000000;fill-opacity:1;fill-rule:evenodd;stroke:none"
         id="path46" /><path
         d="m 1840.43,1825.22 -21.47,37.2 -52.95,-82.33 -77.4,66.62 9,-121.95 -70.9,-15.65 73.22,-40.55 -53.98,-59.02 73.13,-6.61 0.42,-87.13 75.65,84.46 61.29,-39.84 -0.16,64.03 100.9,-14.76 -47.18,56.17 3.17,2.18 80.84,-76.59 -130.54,22.85 7.97,-80.98 -72.62,54.94 -91.78,-113.18 8.27,123.46 -102.11,-2.49 77.78,70.91 -105.77,48.69 109,13.77 -20.51,146.92 91.92,-88.96 56.44,103.38 21.01,-63.94 -2.64,-1.6"
         style="fill:#000000;fill-opacity:1;fill-rule:nonzero;stroke:none"
         id="path48" /><path
         d="m 2106.12,2226.27 3.8,-21.91 -248.96,-364.33 z"
         style="fill:#000000;fill-opacity:1;fill-rule:evenodd;stroke:none"
         id="path50" /><path
         d="m 1930.43,1684.21 465.72,166.7 -14.08,11.62 z"
         style="fill:#000000;fill-opacity:1;fill-rule:evenodd;stroke:none"
         id="path52" /><path
         d="m 2532.64,2689.15 c 172.09,82.86 378.84,10.5 461.7,-161.59 82.85,-172.09 10.5,-378.83 -161.61,-461.68 l -0.64,-0.31 c 159.75,87.97 224.63,286.59 144.55,452.88 -82.77,171.9 -289.18,244.28 -461.15,161.84 5.6,3.09 11.31,6.05 17.15,8.86"
         style="fill:#000000;fill-opacity:1;fill-rule:evenodd;stroke:none"
         id="path54" /><path
         d="m 3061.17,2565.16 c 14.98,-33.55 45.53,-125.47 17.11,-220.32 6.86,69.73 -4.73,142.15 -37.32,209.89 -43.34,89.99 -116.29,156.12 -201.53,192.36 128.5,-21.66 201.8,-137.23 221.74,-181.93"
         style="fill:#000000;fill-opacity:1;fill-rule:evenodd;stroke:none"
         id="path56" /><path
         d="m 2929.57,2350.49 c -0.37,-8.9 -1.15,-17.75 -2.36,-26.56 -0.37,0.87 -0.8,1.68 -1.25,2.43 3.16,24.84 3.1,47.51 -0.1,68.73 -2.29,15.11 -6.17,29.48 -11.64,43.42 -2.56,6.46 -5.43,12.84 -8.65,19.13 0.82,7.06 0.48,14.29 -0.77,21.68 3.52,-7.78 6.65,-15.69 9.42,-23.7 11.74,-33.99 16.83,-69.7 15.35,-105.13 z m -10.35,-37.93 c -1.43,-3.82 -3.13,-7.6 -5,-11.26 -9.81,-19.03 -25.2,-35.33 -40.51,-42.35 -20.14,12.45 -40.14,25.67 -60.23,39.07 l -7.66,5.13 c 3.07,37.41 -3.07,76.49 -17.17,110.67 8.69,9.53 17.11,19.58 24.83,29.81 2.69,3.58 5.31,7.18 7.81,10.78 8.38,12.07 15.55,24.24 20.7,35.92 14.63,0.18 39.92,-13.36 57.62,-31.27 5.98,-11.21 10.84,-22.63 14.61,-34.42 3.1,-9.79 5.47,-19.84 7.03,-30.23 3.77,-24.85 3.11,-51.7 -2.03,-81.85 z m -75.26,-138.51 c -9.72,-10.13 -19.9,-19.1 -30.48,-26.91 -8.89,-6.55 -18.05,-12.3 -27.52,-17.23 -18.62,-9.73 -38.4,-16.34 -59.34,-19.89 -12.03,3.77 -23.26,8.96 -33.24,15.16 -4.04,2.51 -7.87,5.17 -11.49,7.98 -5.19,4.06 -9.9,8.41 -14.04,12.95 5.37,9.83 10.02,19.63 14.04,29.41 2.54,6.18 4.83,12.34 6.88,18.48 1.7,5.14 3.22,10.28 4.61,15.4 3.08,11.51 5.35,22.98 6.91,34.41 38.64,12.56 72.13,29.62 103.83,54.88 l 9.36,-6.26 c 19.02,-12.67 37.98,-25.16 57.13,-37.02 2.53,-18.12 -6.29,-51.01 -26.65,-81.36 z m -6.05,-20.96 c -7.87,-7.22 -16.02,-13.91 -24.43,-20.08 -36.43,-26.74 -77.66,-43.62 -120.1,-50.84 l -2.56,-0.43 c 0.86,0.32 1.7,0.64 2.56,0.97 13.98,5.48 25.39,12.99 34.12,22.76 21.35,3.63 41.56,10.39 60.61,20.31 8.71,4.55 17.16,9.76 25.37,15.63 9.98,7.14 19.61,15.27 28.86,24.38 2.6,-0.02 6.23,0.32 10.14,1.71 -4.65,-4.93 -9.51,-9.73 -14.57,-14.41 z m -195.12,-11.23 c -30.11,-8.52 -62.63,-10.14 -84.22,-4.98 l -1.52,0.84 c -16.58,9.26 -33.53,22.12 -48.26,36.14 -3.54,3.37 -6.95,6.82 -10.2,10.28 -14.27,15.25 -25.35,31.09 -30.04,44.5 4.67,29.81 13.5,60.4 30.92,88.21 3.11,0.12 6.21,0.26 9.32,0.41 16.29,0.8 32.4,1.9 48.26,3.46 l 3.36,0.34 c 19.38,2.01 38.4,4.78 56.86,8.59 8.06,-10.35 16.62,-20.52 25.52,-30.44 12.46,-13.85 25.61,-27.23 39.1,-39.96 3.81,-3.59 7.64,-7.12 11.49,-10.6 l 2.56,-2.31 c -0.69,-5.34 -1.55,-10.7 -2.56,-16.06 -2.19,-11.57 -5.16,-23.18 -9.02,-34.83 -0.79,-2.35 -1.61,-4.72 -2.47,-7.09 -4.66,-12.91 -10.44,-25.89 -17.5,-38.95 -6.93,-2.93 -14.19,-5.45 -21.6,-7.55 z m -85.74,-49.68 c -3.73,1.21 -7.42,2.5 -11.07,3.86 2.07,0.55 4.12,1.23 6.11,2.03 1.62,-1.12 3.26,-2.21 4.96,-3.26 3.46,-2.15 7.15,-4.16 11.08,-5.99 -3.72,1.04 -7.41,2.16 -11.08,3.36 z m -48.26,20.85 c -14.34,7.85 -28.13,17.01 -41.17,27.5 -11.1,8.9 -21.64,18.75 -31.57,29.54 -19.43,21.16 -35.07,44.5 -46.95,69.15 l -1.15,2.45 v 0.38 c 0.08,2.56 0.45,5.08 1.15,7.57 0.9,3.13 2.27,6.2 4.1,9.18 20.47,-20.25 44.63,-30.13 71.37,-32.8 0.86,-2.28 1.88,-4.63 3.05,-7.02 5.9,-12.05 15.68,-25.26 27.61,-38 4.26,-4.56 8.81,-9.08 13.56,-13.46 12.46,-11.47 26.31,-22.07 40.1,-30.41 -2.17,-11.94 -2.87,-23.76 0.15,-35.36 -3.53,-1.3 -7.22,-2.18 -10.99,-2.61 -9.96,4.04 -19.73,8.67 -29.26,13.89 z m -131.6,154.95 c -12.09,34.4 -17.35,70.59 -15.82,106.5 0.25,6.26 0.74,12.49 1.42,18.71 2.72,-6.67 6.31,-12.89 10.78,-18.27 -6.91,-16.99 -4.66,-52.03 3.62,-81.05 3.14,-11.06 7.19,-21.24 11.91,-29.23 0.39,-0.64 0.78,-1.26 1.17,-1.88 -0.41,-0.6 -0.8,-1.2 -1.17,-1.8 -2.21,-3.64 -3.81,-7.38 -4.76,-11.24 -2.6,6.02 -4.98,12.11 -7.15,18.26 z m 0,188.9 c 3.42,9.78 7.4,19.41 11.91,28.84 15.2,31.64 36.53,60.97 63.95,86.15 1.93,1.79 3.88,3.55 5.88,5.26 2.53,0.75 5.05,1.41 7.55,1.98 l 0.02,0.01 1.12,0.24 c 6.13,1.33 12.09,2.12 17.69,2.19 -1.77,-19.14 2.37,-37.78 9.83,-55.53 -10.1,-12.35 -19.3,-25.23 -27.52,-38.68 -2.39,-3.89 -4.67,-7.82 -6.9,-11.8 -10.52,-18.99 -19.2,-39.02 -25.8,-60.26 -16.48,-6.49 -32.07,-14.33 -45.82,-24.97 -4.14,-3.21 -8.12,-6.68 -11.91,-10.45 l -0.92,-0.91 c -5.16,6.51 -9,14.3 -11.6,22.64 -0.2,0.68 -0.39,1.34 -0.57,2 2.64,18.07 6.99,35.92 13.09,53.29 z m 90.43,127.51 c 13.08,10.52 26.87,19.7 41.17,27.54 15.55,8.53 31.72,15.5 48.26,20.89 10.82,3.53 21.82,6.4 32.89,8.6 -1.85,-2.15 -3.61,-4.36 -5.17,-6.61 -0.59,-0.05 -1.22,-0.13 -1.84,-0.2 -8.3,-1.02 -17.05,-3.06 -25.88,-5.96 -16.66,-5.46 -33.59,-13.99 -48.26,-24.55 -7.6,-5.48 -14.59,-11.5 -20.63,-17.93 -6.5,0.16 -13.41,-0.6 -20.54,-2.08 l -0.51,-0.1 z m 127.79,56.17 c 0.7,0.76 1.43,1.51 2.13,2.24 14.98,2.55 30.12,3.9 45.25,4.03 4.89,0.05 9.79,-0.03 14.67,-0.24 8.17,-0.34 16.33,-1.04 24.43,-2.09 3.85,-0.5 7.68,-1.06 11.49,-1.71 39.16,-6.67 77.15,-21.54 111.13,-44.49 -8.44,0.55 -15.43,-4.35 -22.28,-9.92 -18.91,8.66 -38.4,14.53 -57.89,17.75 -10.34,1.71 -20.71,2.66 -30.96,2.88 -3.85,0.08 -7.68,0.06 -11.49,-0.06 -6.09,-0.2 -12.14,-0.65 -18.14,-1.36 -6.86,5.06 -13.87,9.55 -20.96,13.38 -17.15,9.26 -34.72,14.55 -51.97,14.2 1.43,1.83 2.97,3.64 4.59,5.39 z M 2671.27,2437 c -9.71,-17.45 -19.2,-35.16 -28.48,-53.09 -8.41,-16.28 -16.64,-32.73 -24.72,-49.37 -18.85,-3.97 -38.3,-6.81 -58.13,-8.86 l -2.89,-0.3 c -15.92,-1.58 -32.03,-2.67 -48.26,-3.48 -3.32,-0.16 -6.62,-0.3 -9.96,-0.44 -11.97,12.38 -22.33,25.4 -31.21,39.02 -11.49,17.58 -20.53,36.18 -27.54,55.75 6.4,20.05 14.71,39.07 24.71,57.05 0.93,1.66 1.87,3.32 2.83,4.97 8.69,15.04 18.63,29.39 29.68,43.08 3.87,1.47 7.68,2.81 11.49,4.06 16.64,5.41 32.81,8.7 48.26,10.1 18.91,1.71 36.76,0.61 53.13,-2.81 11.56,-14.91 22.5,-30.19 32.61,-45.92 l 0.96,-1.48 c 10.04,-15.66 19.24,-31.73 27.52,-48.28 z m 167.03,56.48 c -5.06,-11.8 -12.28,-24.15 -20.8,-36.42 -1.31,-1.88 -2.66,-3.76 -4.02,-5.64 -8.52,-11.74 -18.15,-23.34 -28.07,-34.29 -27.21,10.6 -62.99,17.42 -92.03,19.58 -3.97,0.3 -7.81,0.51 -11.49,0.63 -1.93,0.06 -3.82,0.11 -5.66,0.12 -8.61,17.32 -18.16,34.07 -28.55,50.32 -1.61,2.51 -3.25,5 -4.89,7.48 -8.94,13.51 -18.43,26.71 -28.47,39.65 7.44,16.68 17.03,31.46 28.47,45.17 6.64,7.95 13.91,15.56 21.72,22.95 5.74,0.68 11.54,1.1 17.38,1.29 3.81,0.12 7.64,0.14 11.49,0.06 10.02,-0.23 20.12,-1.17 30.21,-2.84 20.79,-3.43 41.61,-9.95 61.64,-19.72 10.55,-10.76 20.16,-22.12 28.25,-33.73 12.56,-17.99 21.5,-36.61 24.82,-54.61 z m 75.92,-1.35 c -12.42,25.74 -28.75,50.11 -49.08,72.23 -15.8,17.19 -33.17,32.09 -51.66,44.71 -36.62,25 -77.74,41 -120.1,47.86 -3.81,0.61 -7.66,1.14 -11.49,1.62 -12.96,1.58 -26.03,2.33 -39.1,2.22 -28.9,-0.25 -57.81,-4.68 -85.74,-13.32 -16.5,-5.11 -32.66,-11.69 -48.26,-19.74 -14.22,-7.34 -28.01,-15.89 -41.17,-25.69 -8.26,-6.14 -16.27,-12.76 -24.03,-19.87 -21.85,-20.09 -40.02,-42.71 -54.49,-66.97 -4.3,-7.22 -8.28,-14.57 -11.91,-22.04 -18.54,-38.09 -28.52,-79.4 -29.87,-121.01 v -19.76 c 1.39,-41.28 11.31,-82.4 29.87,-120.49 3.63,-7.48 7.61,-14.85 11.91,-22.08 10.33,-17.28 22.54,-33.77 36.7,-49.17 12.97,-14.11 26.97,-26.67 41.82,-37.7 13.12,-9.79 26.91,-18.36 41.17,-25.71 15.59,-8.02 31.74,-14.58 48.26,-19.68 27.85,-8.61 56.76,-13.08 85.74,-13.34 13.05,-0.12 26.12,0.6 39.1,2.19 3.85,0.47 7.66,1.02 11.49,1.64 42.19,6.83 83.26,22.74 120.1,47.91 11.75,8.02 23.08,16.97 33.86,26.88 28.64,26.32 50.94,56.95 66.88,89.98 18.22,37.85 28.07,78.86 29.39,120.15 v 19.39 c -1.34,41.02 -11.11,81.88 -29.39,119.79"
         style="fill:#000000;fill-opacity:1;fill-rule:evenodd;stroke:none"
         id="path58" /><path
         d="m 3790.7,1899.13 c -5.71,-35.64 -17.78,-70.27 -35.88,-102.03 -7.46,-13.09 -15.91,-25.69 -25.41,-37.67 -1.7,-2.13 -3.39,-4.24 -5.16,-6.33 0.07,3.13 -0.51,6.18 -1.5,9.14 -1.29,3.89 -3.3,7.64 -5.55,11.32 -0.68,1.11 -1.37,2.23 -2.09,3.34 0.72,1.21 1.41,2.41 2.09,3.61 4.77,8.38 8.82,16.55 12.21,24.42 20.79,48.21 17.82,85.15 19.29,88.77 0.43,1.07 2.76,3.55 6.12,7.32 10.38,11.61 30.41,35.42 34.33,67.63 l 5,-5.77 c 1.12,-21.35 -0.06,-42.72 -3.45,-63.75 z m -72.86,-152.84 -0.64,-0.75 c -10.92,-12.96 -23.07,-24.38 -36.41,-34.93 -3.73,-2.95 -7.57,-5.83 -11.48,-8.66 -9.86,-7.15 -20.02,-13.61 -30.41,-19.39 -14.61,-8.13 -29.67,-14.92 -45.02,-20.43 -8.34,-2.1 -18.01,-1.91 -26.68,-0.55 -1.99,0.31 -3.92,0.7 -5.78,1.12 1.88,1.37 3.81,2.9 5.78,4.54 17.18,14.34 36.84,38.01 38.03,57.25 11.33,0.59 22.6,2.95 33.67,6.64 14.45,4.81 28.52,11.87 41.89,20.13 10.84,6.7 21.18,14.19 30.86,21.9 2.09,-3.28 4.09,-6.64 5.55,-10.1 2.21,-5.29 3.05,-10.82 0.64,-16.77 z m -150.64,-92.33 c -4.96,-1.27 -9.92,-2.41 -14.91,-3.43 -24.52,-4.98 -49.38,-6.87 -74.09,-5.72 -19.43,0.92 -38.76,3.7 -57.75,8.32 0.8,0.36 1.54,0.76 2.31,1.15 19.44,-4.57 37.8,-7.09 55.44,-7.57 4.51,-0.12 8.98,-0.1 13.4,0.05 20.97,0.69 40.97,4.36 60.69,10.88 1.3,0.43 2.59,0.87 3.9,1.32 3.59,-1.04 7.26,-1.8 11.01,-2.29 2.52,-0.34 5.06,-0.54 7.62,-0.64 -2.52,-0.73 -5.08,-1.42 -7.62,-2.07 z m -156.51,1.7 -2.18,0.62 c -10.04,2.89 -19.59,6.31 -28.86,10.25 -17.77,7.56 -34.39,17.01 -51.23,28.2 -6.48,4.3 -12.82,8.81 -19.05,13.57 -16.05,12.22 -31.32,25.99 -45.77,41.56 -1.02,1.68 -1.49,3.8 -1.7,5.95 -0.16,1.85 -0.1,3.74 0,5.39 0.04,0.61 0.1,1.19 0.14,1.73 12.89,-11.76 29.88,-23.78 47.33,-32.1 14.36,-6.86 29.01,-11.19 41.9,-10.79 4.18,-14.9 14.98,-29.55 28.38,-41.36 8.88,-7.82 18.89,-14.39 28.86,-19 2.48,-1.14 4.94,-2.16 7.39,-3.04 z m -150.48,115.8 -0.17,-0.23 c -13.45,18.09 -23.84,36.81 -31.27,56.3 -1.73,4.56 -3.3,9.14 -4.72,13.78 -1.33,4.4 -2.52,8.83 -3.56,13.3 -2.5,10.68 -4.16,21.56 -5,32.65 l 0.3,0.64 c 1.46,3.41 3.02,6.78 4.7,10.1 1.14,2.25 2.33,4.49 3.56,6.68 9.67,17.15 22.38,32.43 37.85,43.5 l 0.84,0.6 c 15.02,-10.47 30.53,-19.42 46.63,-26.87 15.39,-7.14 31.3,-12.9 47.78,-17.32 5.16,-26.27 12.38,-50.74 22.5,-74.29 6.58,-15.28 14.36,-30.16 23.59,-44.91 -7.91,-9.28 -15.8,-18.54 -23.59,-27.81 -9.05,-10.8 -17.99,-21.6 -26.7,-32.5 -13.17,-1.06 -28.55,3.69 -43.58,11.27 -17.59,8.86 -34.74,21.6 -47.47,33.48 z m -3.04,-15.13 c -12.79,15.77 -23.86,32.75 -33.12,50.53 -1.21,2.34 -2.4,4.72 -3.56,7.09 -16.93,34.61 -27.13,71.9 -30.07,108.67 6.91,-20.37 19.19,-32.27 20.05,-34.18 1.49,-3.37 0.77,-23.28 10.02,-52.21 1.06,-3.31 2.23,-6.72 3.56,-10.25 6.72,-17.74 17.17,-38.16 33.66,-59.87 z m -52.93,284.18 c 2.6,7.4 10.08,21.15 16.25,30.07 1.27,1.82 2.48,3.44 3.56,4.76 1.42,1.7 2.67,2.9 3.61,3.41 6.58,1.04 13.11,0.94 19.65,0.08 4.86,-0.65 9.73,-1.72 14.59,-3.09 1.05,-0.29 2.11,-0.6 3.16,-0.92 -1.15,-2.35 -2.2,-4.82 -3.16,-7.38 -12.01,-32.21 -9.57,-80 -0.1,-113.31 -14.82,-9.93 -27.67,-23.93 -37.75,-39.71 -1.23,-1.93 -2.42,-3.89 -3.56,-5.87 -2.89,-4.97 -5.5,-10.07 -7.79,-15.27 -12.36,13.62 -21.91,35.76 -23.14,55.18 -1.59,25.52 6.58,69.08 14.68,92.05 z m 16.25,40.18 c 0.76,1.55 1.53,3.1 2.33,4.63 0.19,-1.26 0.41,-2.54 0.68,-3.8 -1.03,-1.13 -2.03,-2.27 -3.01,-3.43 -1.03,-1.2 -2.01,-2.44 -3.02,-3.71 0.99,2.11 1.99,4.21 3.02,6.31 z m 41.41,62.96 c 13.9,16.25 29.74,31.25 47.47,44.65 1.73,1.32 3.52,2.64 5.32,3.93 20.57,14.9 42.4,26.81 64.96,35.84 5.52,2.2 11.09,4.24 16.68,6.1 3.69,0.4 8.37,-1.75 12.18,-4.04 1.19,-0.72 2.27,-1.42 3.23,-2.1 -1.11,-0.88 -2.19,-1.78 -3.23,-2.69 -12.32,-10.61 -21.83,-22.76 -28.86,-36.35 -5.49,-10.65 -9.46,-22.18 -12.07,-34.54 -19.24,-5.46 -39.69,-18.03 -58.21,-33.14 -16.1,-13.11 -30.73,-28.13 -41.87,-42.11 -1.87,0.59 -3.73,1.12 -5.6,1.62 -11.11,3.02 -22.36,4.57 -33.95,2.95 -0.58,3.12 -0.89,6.3 -0.89,9.54 9.78,17.74 21.4,34.62 34.84,50.34 z m 146.61,94.3 c 22.91,6.59 46.28,10.37 69.69,11.41 24.82,1.11 49.69,-0.86 74.09,-5.81 2.45,-0.49 4.89,-1.01 7.31,-1.57 -2.48,-0.69 -4.92,-1.49 -7.31,-2.4 -3.84,-1.46 -7.51,-3.21 -11.01,-5.26 -13.96,8.38 -38.51,11.09 -63.08,9.84 -23.83,-1.21 -47.68,-6.16 -61.99,-13.32 -2.46,1.9 -5.04,3.5 -7.7,4.77 -1.07,0.52 -2.13,0.99 -3.25,1.39 z m 161.86,1.34 c 23.75,-6.36 46.79,-15.61 68.53,-27.65 14.62,-8.1 28.63,-17.45 41.89,-28.05 12.91,-10.32 25.1,-21.81 36.41,-34.46 4.21,-4.68 8.26,-9.52 12.21,-14.52 2.63,-3.33 5.21,-6.73 7.71,-10.21 1.66,-2.29 3.28,-4.58 4.85,-6.88 2.26,-5.63 1.96,-20.82 1.62,-25.96 -4.72,0.99 -9.46,1.63 -14.18,1.96 -4.07,0.3 -8.15,0.36 -12.21,0.21 -12.02,-0.41 -23.98,-2.64 -35.7,-6.12 l -0.71,0.73 c -13.13,13.34 -27.1,25.55 -41.89,36.59 -19.22,14.31 -39.88,26.63 -62.07,36.77 -2.67,10.26 -5.76,20.31 -9.63,30.01 -0.8,2 -1.62,3.99 -2.48,5.96 -3.53,7.96 -7.6,15.64 -12.43,22.97 -2.26,3.44 -4.68,6.82 -7.31,10.1 1.81,1.01 4.39,2.3 7.31,3.57 4.8,2.09 10.48,4.13 14.91,4.77 1.17,0.17 2.23,0.26 3.17,0.21 z m 159.04,-320.59 c -3.93,4.42 -7.98,8.68 -12.21,12.78 -10.96,10.65 -22.93,20.14 -36.41,28.32 -0.87,0.53 -1.73,1.05 -2.61,1.56 0.95,2.73 1.81,5.46 2.61,8.23 10.34,35.76 9.67,74.58 0.36,112.79 11.83,3.61 23.9,5.96 36.05,6.42 4.06,0.15 8.14,0.09 12.21,-0.21 4.8,-0.36 9.59,-1.04 14.39,-2.1 3.9,-4.39 7.59,-9.19 11.02,-14.3 7.22,-10.69 13.36,-22.74 18.18,-35.23 19.77,-51.27 14.73,-89.61 -18.18,-129.05 -2.72,-3.26 -5.63,-6.52 -8.73,-9.81 -5.34,7.2 -10.88,14.07 -16.68,20.6 z m -158.83,-165.15 c -1.13,1 -2.26,2 -3.38,3.02 -5.04,4.57 -10.02,9.38 -14.91,14.33 -6.25,6.32 -12.33,12.89 -18.21,19.54 6.64,12.33 12.83,27.04 18.21,42.47 6.38,18.34 11.59,37.7 14.91,55.3 1.19,6.26 2.13,12.3 2.8,17.99 23.71,8.59 46.6,18.83 68.9,30.4 12.42,6.45 24.67,13.32 36.74,20.53 1.74,-1.01 3.44,-2.06 5.15,-3.12 11.46,-7.19 21.8,-15.41 31.39,-24.53 1.71,-1.62 3.37,-3.28 5.02,-4.96 4.21,-4.26 8.26,-8.7 12.21,-13.32 4.95,-5.79 9.7,-11.86 14.31,-18.2 -0.35,-19.32 -3.24,-38.89 -8.82,-58.16 -1.61,-5.58 -3.44,-11.14 -5.49,-16.66 -3.43,-9.26 -7.52,-18.41 -12.21,-27.4 -2.19,-4.2 -4.52,-8.36 -6.99,-12.48 -9.55,-7.69 -19.42,-14.8 -29.42,-21.08 -8.93,-5.6 -17.96,-10.54 -26.95,-14.65 -5,-2.27 -9.98,-4.29 -14.94,-6.02 -12.38,-4.33 -24.57,-6.89 -36.19,-7.19 -3.16,-0.17 -27.3,19.91 -32.13,24.19 z m -163.04,29.33 0.97,-0.21 c 22.64,-4.6 46.3,-6.08 69.69,-4.43 17.73,1.25 35.27,4.3 52.05,9.12 6.95,-7.91 14.32,-15.87 22.04,-23.54 4.85,-4.8 9.83,-9.49 14.91,-14 10.59,-9.36 21.68,-17.88 33.11,-24.83 -0.65,-13.88 -17.5,-37.57 -33.11,-51.81 -4.76,-4.34 -9.41,-7.8 -13.45,-9.85 l -1.46,-0.5 c -19.77,-6.7 -39.83,-10.41 -60.85,-11.13 -4.37,-0.14 -8.77,-0.16 -13.24,-0.04 -16.17,0.43 -32.96,2.62 -50.66,6.6 -6.25,1.56 -12.71,3.98 -19.03,7.09 -10.25,5.03 -20.27,11.89 -28.86,19.91 -11.14,10.44 -19.86,22.86 -23.57,35.85 7.71,9.66 15.58,19.25 23.57,28.83 9.18,10.98 18.5,21.95 27.89,32.94 z m -27.89,136.39 c 9.4,7.87 19.04,15.57 28.86,23.02 17.35,13.14 35.33,25.5 53.69,36.63 5.36,-3.43 10.69,-6.88 16,-10.33 25.14,-16.32 49.69,-32.9 74.09,-50.19 4.35,-3.1 8.72,-6.21 13.06,-9.35 -1.82,-17.02 -6.45,-38.67 -13.06,-60.35 l -0.07,-0.26 c -6.13,-20 -13.94,-39.88 -22.75,-56.19 -16.49,-4.78 -33.79,-7.81 -51.27,-9.06 -23.39,-1.67 -47.1,-0.16 -69.69,4.53 l -1.05,0.22 c -11.34,18.12 -20.45,36.42 -27.81,55.39 -7.5,19.4 -13.16,39.53 -17.41,60.9 5.71,5.08 11.51,10.09 17.41,15.04 z m 187.55,238.99 c -5.02,-1.28 -10,-2.69 -14.91,-4.21 -26.34,-8.21 -50.95,-20.01 -74.09,-35.73 -4.69,-3.19 -9.34,-6.55 -13.91,-10.07 -17.03,13.83 -35.95,24.42 -55.78,32.65 -9.45,3.92 -19.11,7.3 -28.86,10.25 -2.43,0.74 -4.86,1.45 -7.32,2.13 1.77,8.35 4.18,16.35 7.32,24 2.07,5 4.45,9.85 7.16,14.53 5.67,9.75 12.82,18.78 21.7,26.94 2.39,2.2 4.91,4.34 7.53,6.41 14.82,8.29 38.74,12.99 62.16,14.01 l 2.4,0.09 c 24.4,0.82 47.74,-2.37 58.93,-9.69 4.84,-5.82 9.06,-11.94 12.76,-18.32 2.94,-5.05 5.56,-10.25 7.92,-15.61 2.64,-6.01 4.94,-12.2 6.99,-18.5 1.88,-5.78 3.56,-11.66 5.1,-17.62 -1.7,-0.4 -3.4,-0.82 -5.1,-1.26 z m 113.59,-100.15 c 1.96,-13.33 2.86,-26.26 2.54,-38.55 -0.24,-9.48 -1.11,-18.64 -2.54,-27.42 -1.79,-10.89 -4.43,-21.19 -7.85,-30.87 -11.21,-6.7 -22.56,-13.07 -34.04,-19.07 -5.62,-2.94 -11.27,-5.78 -16.95,-8.54 -16.88,-8.23 -34.1,-15.62 -51.62,-22.11 l -3.13,2.27 c -4.94,3.57 -9.9,7.13 -14.91,10.66 -24.21,17.17 -49.14,33.91 -74.09,50.04 -4.21,2.72 -8.41,5.42 -12.6,8.11 -3.36,39.91 -1.95,80.8 1.04,121.19 3.81,2.96 7.67,5.79 11.56,8.5 13.18,9.2 26.72,16.99 40.66,23.53 4.68,2.19 19.63,8.14 33.43,12.97 5.36,1.88 10.54,3.59 14.91,4.85 5.02,1.44 8.93,2.29 10.71,2.1 19.04,-8.94 36.89,-19.5 53.59,-31.52 2.5,-1.79 4.96,-3.62 7.4,-5.48 13.13,-10 25.55,-20.95 37.3,-32.8 l -0.91,-0.29 c 2.32,-9.32 4.14,-18.54 5.5,-27.57 z m -418.89,-80.74 c -3.78,23.47 -4.59,50.08 0,72.36 1.93,9.41 4.84,18.06 8.85,25.36 5.33,9.64 24.14,27.22 38.62,39.38 4.85,4.1 9.23,7.58 12.43,9.94 10.64,7.85 40.14,26.56 47.05,24.69 3.61,-0.97 7.21,-2.02 10.8,-3.12 9.77,-2.99 19.43,-6.43 28.86,-10.42 18.91,-8.02 36.92,-18.26 53.21,-31.54 -3.01,-40.25 -4.39,-80.52 -1.14,-120.33 -17.73,-10.67 -35.17,-22.59 -52.07,-35.25 -9.82,-7.37 -19.48,-15 -28.86,-22.78 -6.64,-5.51 -13.16,-11.1 -19.55,-16.74 -17.48,4.57 -34.41,10.71 -50.73,18.44 -14.56,6.87 -28.62,14.99 -42.24,24.36 l 0.41,0.25 c -2.24,7.72 -4.16,16.32 -5.64,25.4 z m 492.92,119.6 c 22.63,-39.58 35.39,-82.57 38.79,-125.88 -1.27,1.43 -2.59,2.77 -3.92,4.06 1.76,34.26 -13.24,76.64 -34.87,105.59 -2.11,2.85 -4.27,5.55 -6.51,8.1 0.6,6.04 0.53,12.51 -0.11,19.19 2.3,-3.64 4.51,-7.34 6.62,-11.06 z m 0,26.28 c -2.09,3.12 -4.19,6.22 -6.43,9.29 -5.98,8.29 -12.34,16.19 -18.98,23.73 -3.97,4.5 -8.02,8.88 -12.21,13.12 -11.41,11.58 -23.61,22.13 -36.41,31.66 -13.35,9.91 -27.36,18.68 -41.89,26.32 -22.81,11.98 -46.91,21.12 -71.7,27.32 -4.94,1.24 -9.92,2.36 -14.91,3.37 -24.33,4.88 -49.23,6.97 -74.09,6.16 -23.41,-0.76 -46.78,-4.11 -69.69,-10.07 -9.72,-2.52 -19.35,-5.52 -28.86,-9.01 -24.41,-8.94 -48.03,-21.06 -70.28,-36.44 -1.85,-1.28 -3.7,-2.56 -5.52,-3.88 -15.21,-10.99 -29.2,-23.17 -41.95,-36.28 -14.18,-14.6 -26.8,-30.39 -37.85,-47.08 -1.21,-1.83 -2.4,-3.67 -3.56,-5.52 -65.89,-104.17 -70.58,-241.9 0,-348.25 1.16,-1.77 2.35,-3.52 3.56,-5.26 1.13,-1.63 2.26,-3.25 3.42,-4.86 10.46,-14.45 21.99,-27.75 34.43,-39.88 14.67,-14.32 30.58,-27.02 47.47,-38.04 22,-14.37 45.65,-25.9 70.28,-34.49 9.49,-3.31 19.12,-6.19 28.86,-8.62 22.8,-5.69 46.19,-8.97 69.69,-9.76 24.75,-0.84 49.63,1.08 74.09,5.84 4.99,0.96 9.97,2.06 14.91,3.26 24.65,6.01 48.75,14.97 71.7,26.95 13.26,6.93 26.17,14.84 38.55,23.8 1.12,0.82 2.21,1.65 3.34,2.47 13.12,9.76 25.26,20.37 36.41,31.72 4.21,4.28 8.28,8.65 12.21,13.14 9.27,10.57 17.75,21.68 25.41,33.24 34.16,51.45 52.43,111.76 53.55,172.76 v 11.22 c -0.96,59.75 -18.42,119.66 -53.55,172.07"
         style="fill:#000000;fill-opacity:1;fill-rule:nonzero;stroke:none"
         id="path60" /><path
         d="m 3975.04,1891.4 c 187.59,48.47 285.99,175.66 149.2,246.56 l -2.41,-2.42 c 100.78,-62.9 33.54,-151.98 -146.79,-174.83 -41.95,-5.31 -90,-7.04 -143.51,-4.02 1.25,-28.39 -0.57,-56.83 -5.39,-84.74 53.46,0.66 103.75,7.79 148.9,19.45"
         style="fill:#000000;fill-opacity:1;fill-rule:nonzero;stroke:none"
         id="path62" /><path
         d="m 4040.43,2196.44 1.47,4.32 c -22.19,10.44 -44.53,20.72 -66.86,30.99 -140.6,64.59 -282.53,128.52 -405.2,225.28 -45.46,35.84 -90.01,76.33 -98.37,116.37 -6.92,33.18 4.13,70.08 58.7,97.66 l -1.58,2.67 c -131.76,-66.71 -52.15,-164.67 29.82,-229.16 116.36,-91.52 302.18,-172.21 416.63,-220.48 26.04,-10.98 48.4,-20.29 65.39,-27.65"
         style="fill:#000000;fill-opacity:1;fill-rule:nonzero;stroke:none"
         id="path64" /><path
         d="m 4009.48,2280.36 c -11.35,5.57 -22.87,11.13 -34.44,16.68 -194.17,93.01 -413.58,182.37 -449.89,271.39 -25.51,62.55 41.68,136.61 286.71,205.49 l 1.58,7.1 c -252.49,-70.64 -329.91,-142.31 -306.84,-211.18 34.7,-103.57 329.9,-237.27 437.72,-286.52 10.33,-4.71 20.55,-9.41 30.72,-14.1 175.04,-80.83 321.07,-158.89 271.54,-263.63 -39.57,-83.67 -159.47,-141.04 -271.54,-174.25 -64.7,-19.17 -126.77,-30.3 -169.29,-33.79 -12.42,-32.47 -29.18,-63.41 -50.14,-91.82 67.93,14.47 145.18,35.83 219.43,64.36 135.91,52.25 261.75,128.55 301.89,230.7 60.53,153.96 -158.87,226.28 -267.45,279.57"
         style="fill:#000000;fill-opacity:1;fill-rule:nonzero;stroke:none"
         id="path66" /><path
         d="m 3975.04,2194.98 c -30.6,14.43 -66.25,29.83 -107.44,46.38 l -0.04,-2.44 c 41.14,-18.01 76.9,-34.97 107.48,-50.83 102.91,-53.41 146.54,-94.36 135.93,-120.92 -8.78,-21.93 -57.44,-38.79 -135.93,-43.48 -42.75,-2.56 -94.35,-1.5 -153.2,4.31 2.11,-9.07 3.84,-18.2 5.31,-27.35 55.49,-4.56 105.39,-4.92 147.89,-1.76 92.37,6.89 149.7,30.5 153.18,64.12 3.93,37.88 -39.66,78.37 -153.18,131.97"
         style="fill:#000000;fill-opacity:1;fill-rule:nonzero;stroke:none"
         id="path68" /><path
         d="m 4302.46,2157.42 c -64.67,74.68 -194.63,140.12 -327.42,200.18 -14.39,6.51 -28.82,12.96 -43.18,19.35 -164.39,73.01 -322.72,138.41 -356.18,203.48 -15.1,29.33 2.46,77.11 65.15,109.08 l -1.04,2.64 c -78.04,-39.79 -95.97,-77.15 -73.94,-119.96 36.9,-71.75 195.35,-140.27 358.1,-214.5 16.91,-7.72 34,-15.42 51.09,-23.14 127.95,-57.75 256.23,-116.16 317.77,-187.22 55.64,-64.25 52.32,-138.46 -28.89,-232.98 l 2.03,-3.96 c 47.44,55.66 73,102.22 76,145.04 v 16.88 c -2.09,29.25 -15.16,57.02 -39.49,85.11"
         style="fill:#000000;fill-opacity:1;fill-rule:nonzero;stroke:none"
         id="path70" /><path
         d="m 893.047,1062.09 c -1.274,1.45 -2.09,2.33 -2.227,2.67 -1.703,25.25 -4.144,50.53 -8.742,75.84 -2.453,13.45 -5.515,26.91 -9.402,40.39 -2.789,9.66 -6,19.35 -9.715,29.04 -0.82,2.14 -1.672,4.28 -2.535,6.42 0.902,1.81 1.754,3.65 2.535,5.51 5.355,12.64 8.113,26 8.394,39.79 l 1.321,-2.09 c 7.566,-12.01 14.371,-24.43 20.371,-37.19 29.918,-63.59 40.027,-135.44 27.172,-206.54 -8.293,24.52 -21.856,40.17 -27.172,46.16 z m 5.73,-118.27 c -1.828,-4.371 -3.738,-8.691 -5.73,-12.929 -6.09,-12.993 -12.895,-25.422 -20.371,-37.282 -3.125,-4.961 -6.371,-9.828 -9.715,-14.57 -5.371,-7.609 -11.023,-14.969 -16.938,-22.051 -9.66,-5.047 -19.628,-9.066 -29.855,-12.066 -9.141,-2.723 -18.496,-4.613 -27.969,-5.602 -1.875,-0.218 -3.769,-0.371 -5.656,-0.5 2.07,6.641 3.961,13.309 5.656,20.02 8.598,34.14 12.281,69.121 11.504,104.859 23.426,18.09 44.567,38.261 63.258,60.781 3.312,4.01 6.555,8.07 9.715,12.22 5.453,7.15 10.664,14.52 15.648,22.13 1.637,-1.76 3.215,-3.57 4.723,-5.4 11.949,-14.55 20.023,-31.59 24.672,-49.88 -4.391,-20.101 -10.688,-40.062 -18.942,-59.73 z M 788.199,802.148 c -4.738,-3.546 -9.562,-6.937 -14.461,-10.226 -20.832,-13.953 -43.097,-25.57 -66.359,-34.66 -15.856,-6.211 -32.176,-11.223 -48.809,-15.024 -8.16,-1.867 -16.386,-3.429 -24.687,-4.699 -3.293,-0.508 -6.61,-0.949 -9.914,-1.359 3.508,2.961 6.828,5.992 9.914,9.101 l 0.996,1.028 -0.012,0.011 c 6.481,6.86 11.918,14.032 15.797,22.008 2.656,0.801 5.293,1.621 7.906,2.481 17.535,5.742 34.012,12.652 48.809,19.73 32.012,15.34 56.191,31.5 66.359,38.531 3.215,2.231 5.024,3.539 5.242,3.621 0.524,0.161 3.887,0.309 9.219,0.891 10.551,1.18 28.832,4.098 48.203,12.328 -14.746,-16.199 -30.91,-30.84 -48.203,-43.762 z M 583.547,733.641 c -21.707,-0.09 -43.586,1.929 -65.367,6.109 -23.035,4.422 -45.961,11.289 -68.438,20.738 -2.894,1.211 -5.742,2.473 -8.57,3.75 l -2.317,1.051 c -6.074,5.84 -11.636,11.981 -16.589,18.293 -2.418,3.059 -4.676,6.168 -6.828,9.359 -2.926,4.348 -5.625,8.821 -8.079,13.391 2.7,-0.082 5.395,-0.141 8.079,-0.172 8.625,-0.101 17.203,0.02 25.734,0.399 26.058,1.121 51.703,4.531 77.008,11.043 l 1.539,0.398 c 20.75,-12.34 41.929,-22.98 63.828,-31.691 16.332,-6.52 33.062,-11.938 50.336,-16.188 3.285,-0.801 6.586,-1.562 9.918,-2.281 -2.703,-4.891 -6.059,-9.531 -9.918,-13.93 -1.035,-1.199 -2.121,-2.351 -3.223,-3.512 -5.191,-5.386 -11.14,-10.476 -17.597,-15.359 -9.786,-0.891 -19.625,-1.359 -29.516,-1.398 z m -168.109,43.558 c -19.735,10.973 -38.032,23.711 -54.774,37.891 -31.187,26.441 -56.969,57.969 -76.609,92.769 -2.367,4.192 -4.66,8.442 -6.844,12.731 l 6.844,-3.942 8.211,-4.718 c 15.726,-19.95 32.425,-38.731 50.531,-56.27 5.801,-5.609 11.758,-11.101 17.867,-16.441 12.231,-10.688 25.102,-20.809 38.809,-30.36 l 0.019,-0.14 c 4.196,-9.047 9.731,-17.828 15.946,-26.008 2.593,-3.391 5.3,-6.691 8.082,-9.879 -2.723,1.43 -5.411,2.879 -8.082,4.367 z m -150.149,169.383 -0.199,0.469 c -24.738,60.539 -32.254,128.099 -19.332,194.679 5.621,-19.34 11.98,-38.23 19.531,-56.44 5.547,-13.4 11.742,-26.42 18.766,-38.97 2.195,-3.93 4.465,-7.8 6.836,-11.65 -6.5,-38.029 -7.176,-76.248 -0.547,-115.029 -1.18,0.66 -3.586,1.988 -6.289,3.558 -4.883,2.821 -10.727,6.379 -11.981,7.891 -2.383,5.109 -4.672,10.269 -6.785,15.492 z m 0,246.678 c 3.422,8.92 7.172,17.85 11.27,26.71 2.382,5.17 4.882,10.31 7.496,15.4 8.168,15.95 17.492,31.45 27.996,45.85 15.601,7.68 31.777,14.03 48.613,19.12 1.746,0.54 3.496,1.06 5.266,1.55 15.961,4.57 32.461,7.97 49.508,10.26 2.195,0.28 4.386,0.56 6.597,0.81 l 1.383,-0.63 c 6.117,-11.92 12.035,-23.76 17.754,-35.61 10.621,-22.03 20.547,-44.16 29.879,-67.3 -10.469,-20.47 -20.438,-41.27 -29.879,-62.29 -9.078,-20.21 -17.656,-40.62 -25.734,-61.21 -3.208,-8.21 -6.356,-16.42 -9.403,-24.66 -15.14,-1.5 -30.277,-3.79 -45.371,-6.69 -21.965,-4.21 -43.809,-9.69 -65.293,-15.98 -3.984,6.52 -7.738,13.23 -11.316,20.18 -4.879,9.47 -9.41,19.35 -13.633,29.65 -1.766,4.29 -3.469,8.63 -5.133,13.06 -5.476,14.56 -10.441,29.87 -15,45.9 4.02,14.83 9.008,30.33 15,45.88 z m 48.301,96.34 c 14.168,17.92 29.969,34.18 47.074,48.66 17.063,14.45 35.422,27.12 54.774,37.91 8.402,4.68 16.98,9 25.734,12.95 3.891,1.76 7.812,3.47 11.773,5.1 17.153,6.98 34.86,12.61 52.922,16.79 1.446,-0.19 8.117,-3.85 12.313,-6.22 l 2.976,-1.67 -2.976,-1.78 c -28.653,-17.15 -54.508,-37.45 -77.008,-61.43 -6.266,-6.67 -12.27,-13.6 -17.996,-20.86 -2.59,-0.28 -5.164,-0.61 -7.738,-0.94 -18.723,-2.47 -36.981,-6.29 -54.774,-11.6 -16.121,-4.8 -31.875,-10.81 -47.226,-18.11 z m 204.59,123.97 c 21.363,4.11 43.281,6.15 65.367,6.09 16.726,-0.06 33.558,-1.34 50.336,-3.87 8.246,-1.26 16.484,-2.8 24.687,-4.66 16.446,-3.74 32.762,-8.72 48.809,-14.98 4.98,-1.95 9.93,-4 14.863,-6.2 -4.246,0.15 -8.418,0.14 -12.484,-0.03 -0.805,-0.04 -1.59,-0.09 -2.379,-0.13 -10.781,-0.69 -21.039,-2.68 -30.617,-6.07 -6.047,2.11 -12.11,4.1 -18.192,5.97 -8.203,2.52 -16.425,4.78 -24.687,6.8 -10.176,2.47 -20.414,4.55 -30.692,6.17 -6.531,1.01 -13.074,1.84 -19.644,2.49 -18.211,1.77 -36.606,2.08 -55.195,0.59 l -10.172,5.62 -2.985,1.63 z M 788.199,971.531 c -4.801,2.457 -9.621,4.891 -14.461,7.258 -21.785,10.699 -43.98,20.66 -66.359,30.151 -12.363,5.26 -24.789,10.36 -37.223,15.38 0.528,33.62 -4.218,68.02 -11.586,101.91 -4.371,20.1 -9.66,40.01 -15.304,59.47 5.039,5.27 10.14,10.45 15.304,15.58 15.715,15.64 31.993,30.72 48.809,45.25 9.984,8.63 20.16,17.08 30.531,25.34 12.067,-3.95 24.031,-8.24 35.828,-12.99 4.848,-1.98 9.664,-4.01 14.461,-6.14 2.864,-1.27 5.719,-2.56 8.563,-3.91 19.894,-9.31 39.308,-20.41 57.996,-34.04 3.031,-7.43 5.75,-14.87 8.203,-22.3 3.879,-11.78 7.062,-23.53 9.715,-35.28 1.332,-5.91 2.523,-11.79 3.597,-17.7 4.551,-25.02 6.989,-50.05 8.653,-75.05 -3.942,-6.12 -8.012,-12.09 -12.25,-17.9 -3.156,-4.33 -6.399,-8.57 -9.715,-12.73 -6.125,-7.7 -12.527,-15.08 -19.184,-22.21 -14.91,-15.948 -31.058,-30.491 -48.41,-43.8 -2.387,1.25 -4.777,2.481 -7.168,3.711 z M 528.824,944.68 c 18.403,8.109 36.707,16.929 54.723,26.289 17.09,8.883 33.91,18.261 50.336,27.992 8.34,4.939 16.578,9.969 24.687,15.069 2.774,1.74 5.532,3.5 8.278,5.26 13.586,-5.46 27.101,-11.03 40.531,-16.75 22.367,-9.52 44.496,-19.489 66.359,-30.31 4.832,-2.41 9.653,-4.839 14.461,-7.308 l 5.645,-2.942 c 0.465,-25.441 -1.36,-50.441 -5.645,-75.011 -2.867,-16.367 -6.832,-32.571 -11.929,-48.59 -0.911,-0.258 -1.547,-0.91 -1.891,-1.699 l -0.641,-0.461 c -19.129,-13.547 -38.972,-25.637 -59.597,-36.09 -2.246,-1.129 -4.496,-2.258 -6.762,-3.348 -15.758,-7.609 -32.02,-14.261 -48.809,-19.812 -3.203,-1.047 -6.441,-2.071 -9.683,-3.039 -0.739,0.058 -1.41,-0.129 -1.996,-0.559 l -0.305,-0.101 c -4.262,0.91 -8.488,1.878 -12.703,2.929 -17.168,4.289 -33.922,9.813 -50.336,16.449 l -0.652,0.262 c -20.2,8.199 -39.957,18.16 -59.602,29.828 3.27,40.223 4.402,82.242 5.531,121.942 z m -87.652,345.48 c -4.246,8.61 -8.578,17.18 -12.981,25.73 4.18,5.27 8.512,10.37 12.981,15.32 22.344,24.79 48.191,45.66 77.008,63.27 2.894,1.77 5.82,3.53 8.785,5.23 1.023,-0.54 2.246,-0.38 3.101,0.24 18.036,1.39 35.836,1.04 53.481,-0.72 6.254,-0.63 12.492,-1.44 18.711,-2.39 10.59,-1.67 21.137,-3.82 31.625,-6.41 8.265,-2.05 16.488,-4.36 24.687,-6.89 5.453,-1.7 10.895,-3.51 16.328,-5.41 4.536,-2.32 25.5,-36.08 32.481,-47.83 0.82,-1.37 1.437,-2.45 1.824,-3.13 5.469,-9.89 22.383,-42.79 23.563,-51.86 -8.59,-6.88 -17.051,-13.89 -25.387,-21.01 -16.805,-14.37 -33.07,-29.27 -48.809,-44.71 -6.984,-6.86 -13.867,-13.81 -20.636,-20.88 l -4.051,0.91 c -16.813,3.77 -33.57,7.21 -50.336,10.22 -21.746,3.91 -43.504,7.08 -65.367,9.32 -13.938,1.44 -27.914,2.49 -41.973,3.09 -10.664,26.54 -22.473,52.39 -35.035,77.91 z M 522.949,945.5 c -1.031,-36.52 -2.051,-74.918 -4.769,-112.262 -0.242,-3.238 -0.492,-6.488 -0.758,-9.718 -17.652,-4.61 -35.727,-7.711 -54.234,-9.508 -7.266,-0.703 -14.602,-1.231 -22.016,-1.551 -8.484,-0.371 -17.055,-0.5 -25.734,-0.391 -3.512,0.039 -7.047,0.11 -10.59,0.219 -15.723,10.832 -30.368,22.43 -44.184,34.762 -4.691,4.187 -9.293,8.48 -13.801,12.828 -17.679,17.152 -34.05,35.609 -49.597,55.211 -0.039,0.14 -0.133,0.281 -0.211,0.422 -3.867,20.687 -5.551,40.816 -5.489,60.468 0.098,19.34 1.848,38.26 4.938,56.78 21.25,6.24 42.637,11.66 64.16,15.82 15.082,2.92 30.219,5.25 45.445,6.76 l 9.329,-9.36 c 8.546,-8.58 17.113,-17.08 25.734,-25.53 24.902,-24.419 50.289,-48.239 77.008,-70.93 z m -4.769,11.738 c -26.625,22.832 -52.067,46.892 -77.008,71.452 -8.621,8.49 -17.195,17.04 -25.734,25.61 l -4.153,4.17 c 1.371,3.71 2.758,7.4 4.153,11.09 8.074,21.3 16.632,42.31 25.734,63.11 10.875,24.86 22.5,49.39 34.933,73.71 13.961,-0.63 27.981,-1.69 42.075,-3.16 12.5,-1.3 25.047,-2.9 37.687,-4.8 9.184,-1.39 18.406,-2.92 27.68,-4.6 16.609,-3.01 33.371,-6.46 50.336,-10.28 l 2.332,-0.52 1.953,-0.98 c 8.211,-28.34 15.594,-57.74 20.402,-87.2 3.758,-23 5.938,-46.07 5.711,-68.7 -0.093,-1.22 -1.179,-2.48 -2.347,-3 l -3.364,-2.15 c -8.117,-5.14 -16.347,-10.21 -24.687,-15.19 -16.418,-9.788 -33.238,-19.241 -50.336,-28.179 -18.711,-9.812 -37.766,-19.039 -56.969,-27.5 -2.812,2.359 -5.609,4.719 -8.398,7.117 z m 219.164,425.522 c 12.691,-6.39 24.84,-13.49 36.394,-21.24 4.922,-3.29 9.742,-6.71 14.461,-10.22 29.211,-21.87 54.289,-47.95 74.762,-76.98 l 2.336,-3.36 c 0.465,-8.34 0.074,-16.43 -1.234,-24.23 -0.313,-1.92 -0.68,-3.81 -1.102,-5.69 -1.555,-6.84 -3.844,-13.49 -6.824,-19.95 -21.504,15.4 -44.266,27.74 -67.938,38.07 -4.785,2.09 -9.609,4.1 -14.461,6.04 -11.547,4.59 -23.293,8.78 -35.179,12.67 -8.43,22.31 -18.848,43.68 -31.18,64.13 -7.715,12.79 -16.188,25.22 -25.387,37.27 8.227,2.57 16.742,4.02 25.387,4.61 9.871,0.66 19.918,0.18 29.965,-1.12 z m 155.703,-125.17 c -6.277,10.11 -13.074,19.9 -20.371,29.35 -3.145,4.1 -6.391,8.13 -9.715,12.07 -21.418,25.49 -46.531,48.28 -74.762,67.63 -4.738,3.22 -9.554,6.38 -14.461,9.41 -16.937,10.49 -34.871,19.8 -53.722,27.73 -4.2,1.76 -8.414,3.41 -12.637,4.99 -16.129,6.07 -32.422,10.91 -48.809,14.51 -8.215,1.83 -16.453,3.33 -24.687,4.54 -16.797,2.48 -33.617,3.68 -50.336,3.72 -22.055,0.04 -43.934,-1.99 -65.367,-5.97 -26.524,-4.93 -52.367,-12.83 -77.008,-23.53 -8.738,-3.81 -17.32,-7.96 -25.734,-12.44 -19.25,-10.28 -37.606,-22.32 -54.774,-36.05 -29.508,-23.61 -55.508,-52.17 -76.609,-85.09 -6.785,-10.58 -13.043,-21.63 -18.766,-33.09 -3.469,-6.93 -6.754,-14 -9.801,-21.25 -42.465,-101.08 -35.918,-213.35 9.801,-305.768 5.652,-11.461 11.922,-22.582 18.766,-33.364 20.484,-32.269 46.187,-61.269 76.609,-85.437 16.848,-13.391 35.121,-25.289 54.774,-35.461 8.324,-4.289 16.871,-8.281 25.675,-11.918 l 0.059,-0.024 c 25.551,-10.597 51.332,-18.117 77.008,-22.789 21.937,-4 43.793,-5.937 65.367,-5.898 16.984,0.039 33.801,1.269 50.336,3.66 8.301,1.199 16.539,2.688 24.687,4.469 16.645,3.621 32.953,8.41 48.809,14.308 23.203,8.641 45.434,19.672 66.359,32.84 4.895,3.082 9.707,6.293 14.461,9.602 27.824,19.441 53.039,42.871 74.762,69.711 3.316,4.097 6.559,8.281 9.715,12.551 7.262,9.796 14.054,20.019 20.371,30.628 8.762,14.711 16.598,30.18 23.379,46.309 48.242,112.041 33.847,228.161 -23.379,320.051"
         style="fill:#000000;fill-opacity:1;fill-rule:nonzero;stroke:none"
         id="path72" /><path
         d="M 726.156,1006.82 C 685.18,918.09 609.516,893.16 547.18,894.109 c -30.496,0.469 -57.805,7.141 -76.305,15.532 -44.863,20.398 -107.648,72.898 -116.172,154.409 -3.047,29.5 0.055,63.17 14.914,99.93 13.082,32.14 36.125,55.77 58.895,72.92 36.316,27.36 79.746,37.73 118.668,37.5 28.586,-0.18 54.738,-6.08 73.871,-15.2 34.957,-16.72 85.328,-52.8 107.527,-115 13.324,-37.32 19.797,-89.32 -2.422,-137.38 z m 197.422,137.52 -13.094,50.54 c -19.738,-55.75 -89.254,-48.82 -189.218,37.51 -102.442,88.45 -123.422,154.72 -79.914,183.91 l -67.082,7.68 c 9.214,-11.79 -2.942,-33.72 -27.09,-58.61 -64.922,-66.89 -216.672,-155.16 -273.797,-125.42 l -17.539,-39.48 c 61.113,-22.9 118.883,-341.271 51.258,-342.74 l 53.933,-55.859 c -30.777,66.879 81.887,72.16 168.395,54.231 5.914,-1.223 11.84,-2.551 17.75,-3.911 95.355,-22.089 187.16,-62.742 149.289,-108.472 l 79.332,40.172 c -79.653,7.211 -57.863,107.168 -15.699,200.621 46.187,102.318 134.253,166.848 171.25,111.258 l -7.774,48.57"
         style="fill:#000000;fill-opacity:1;fill-rule:evenodd;stroke:none"
         id="path74" /><path
         d="m 1511.73,354.781 -301.06,270.258 80.25,42.961 -182.9,175.75 70.19,23.879 -200.241,250.031 343.641,-283.34 -85.54,-20.73 195.02,-177.551 -86.72,-25.148 167.36,-256.11"
         style="fill:#000000;fill-opacity:1;fill-rule:evenodd;stroke:none"
         id="path76" /><path
         d="m 1432.47,442.898 -119.52,182.891 80.91,23.461 -196.02,178.48 83.95,20.329 -218.28,179.991 133.91,-163.152 -67.33,-22.898 178.86,-175.891 -79.63,-42.621 203.15,-180.59"
         style="fill:#ffffff;fill-opacity:1;fill-rule:evenodd;stroke:none"
         id="path78" /><path
         d="m 530.051,653.121 460.535,-69.48 -50.016,-92.071 287.1,-53.34 -52.41,-67.359 350.78,-113.801 -509.76,55.121 69.16,74.028 -299.905,47.41 67.508,79.043 -322.992,140.449"
         style="fill:#000000;fill-opacity:1;fill-rule:evenodd;stroke:none"
         id="path80" /><path
         d="M 617.168,631.449 878.48,519.27 l -58.277,-67.829 295.947,-54.242 -61.44,-63.59 329.71,-50.879 -240.26,86.309 46.57,58.359 -279.464,59.293 45.703,87.481 -339.801,57.277"
         style="fill:#ffffff;fill-opacity:1;fill-rule:evenodd;stroke:none"
         id="path82" /><path
         d="M 983.242,873.41 1185.19,647.672 971.703,844.281 Z"
         style="fill:#000000;fill-opacity:1;fill-rule:evenodd;stroke:none"
         id="path84" /><path
         d="m 929.059,794.391 -29.34,-31.61 523.521,-420.422 z"
         style="fill:#000000;fill-opacity:1;fill-rule:evenodd;stroke:none"
         id="path86" /><path
         d="m 2652.59,1027.25 -3.47,-0.26 c -2.5,5.61 -17.01,37.34 -27.1,28.59 -7.32,-6.38 6.79,-17.2 13.11,-29.91 -14.53,-1.61 -28.94,-3.83 -42.83,-6.6 -2.35,5.72 -17.66,40.32 -28.17,31.2 -7.66,-6.63 7.49,-16.96 14.99,-34 -9.74,-2.18 -19.18,-4.69 -28.27,-7.41 -5.13,-1.53 -2.73,-9.508 2.38,-7.95 9.29,2.81 18.98,5.3 28.97,7.58 8.27,-21.002 2.52,-46.56 14.11,-45.959 13.8,0.688 0.88,42.709 -1.08,48.699 14.11,2.76 28.7,4.95 43.4,6.5 9.93,-24.492 4.52,-48.07 13.96,-49.82 0.5,-0.101 1.03,-0.121 1.61,-0.101 13.78,0.73 1.25,41.891 -1.61,50.381 l -0.28,0.79 0.28,0.03 c 14.7,1.12 29.46,1.55 43.99,1.32 9.64,-27.842 3.82,-49.049 14.97,-48.439 13.7,0.769 1.16,41.899 -0.81,47.919 12.84,-0.68 25.43,-1.96 37.52,-3.9 9.39,-20.551 3.06,-46.441 14.8,-45.769 13.21,0.769 1.85,38.089 0.29,42.969 6.93,-1.49 13.61,-3.2 20.11,-5.16 3.84,-1.17 7.64,-2.44 11.32,-3.79 6.44,-16.93 2.66,-39.09 13.6,-38.09 11.23,1.078 3.35,26.61 2.25,31.399 3.22,-1.61 9.26,-6.43 11.86,-1.578 3.41,6.389 -11.12,10.389 -15.02,12.079 -1.61,4.23 -13.89,30.36 -24.01,32.59 -1.91,0.41 -3.73,0 -5.4,-1.58 -4.66,-4.37 0.38,-10.91 5.4,-16.75 2.36,-2.77 4.76,-5.38 6.07,-7.53 -2,0.64 -4.04,1.27 -6.07,1.87 -7.56,2.22 -15.42,4.08 -23.54,5.68 -2.37,5.37 -18.41,36.88 -28.23,27.14 -6.54,-6.51 7.28,-16.74 11.92,-24.43 -11.63,1.65 -23.68,2.74 -35.9,3.28 -2.4,5.71 -17.75,40.6 -28.35,31.43 -7.4,-6.38 6.82,-16.86 13.66,-31.06 -13.35,0.12 -26.95,-0.35 -40.43,-1.36"
         style="fill:#000000;fill-opacity:1;fill-rule:nonzero;stroke:none"
         id="path88" /><path
         d="m 2719.41,1065.95 c 26.23,-5.69 47.28,-13.05 64.05,-21.33 19.47,-9.62 33.11,-20.5 42.24,-31.46 25.32,-30.379 15.97,-61.351 0,-67.871 l -0.11,-0.039 c -8.61,-3.441 -23.81,-5.711 -42.13,-7.121 -40.69,-3.117 -96.82,-2.02 -130.87,-0.359 -7.14,0.359 -13.31,0.742 -18.17,1.101 -33.16,2.5 -62.51,-0.09 -85.23,13.84 -8.11,4.961 -13.87,10.93 -19.56,20.019 -15.25,24.34 -11.68,56.95 14.98,73.52 31.33,19.57 69.79,27.12 107.98,27.08 22.93,-0.05 45.72,-2.8 66.82,-7.38 z m -199.94,-43.33 c -7.73,-20.03 -3.26,-43.061 10.26,-59.542 5.14,-6.25 8.71,-9.43 15.6,-13.867 8.83,-5.672 20.39,-9.43 32.76,-10.992 13.85,-1.75 41.89,-3.598 74.5,-4.739 42.99,-1.511 93.92,-1.789 130.87,0.891 18.54,1.34 33.55,3.438 42.24,6.52 0.48,0.179 0.98,0.359 1.44,0.539 16.49,6.629 20.54,27.039 17.07,42.992 -2.94,13.41 -9.47,25.028 -18.51,35.078 -11.01,12.25 -25.76,22.17 -42.24,30.09 -38.83,18.6 -87.4,26.17 -119.95,27.15 -3.39,0.1 -7.06,0.12 -10.92,0.08 -44.6,-0.43 -116.29,-11.04 -133.12,-54.2"
         style="fill:#000000;fill-opacity:1;fill-rule:nonzero;stroke:none"
         id="path90" /><path
         d="m 2908.27,709.629 -2.44,20.781 -1.09,9.231 c 0.37,1.808 0.72,3.609 1.09,5.429 2.27,11.571 4.11,23.231 5.54,34.989 1.31,10.98 2.28,22.062 2.92,33.191 0.4,7.641 0.66,15.309 0.83,23.031 4.89,-36.91 3.49,-76.25 -3.75,-112.73 -0.94,-4.68 -1.97,-9.332 -3.1,-13.922 z m -8.59,-29.141 c -15.83,-46 -41.23,-87.566 -73.98,-122.316 -12.99,-13.781 -27.1,-26.481 -42.24,-37.961 -10.34,-7.82 -21.15,-15.09 -32.38,-21.742 12.27,15.441 23.06,31.191 32.38,47.371 30.11,52.41 44.4,109.359 40.07,174.59 l 2.17,0.23 c 24.45,2.57 48.52,6.051 72.1,10.469 2.52,-16.777 3.19,-33.547 1.88,-50.641 z M 2652.59,459.789 c -35.3,-7.84 -72.3,-10.398 -108.31,-6.789 45.05,40.84 81.41,102.148 108.31,164.148 14.4,33.184 26.1,66.59 34.94,97.172 31.85,-0.121 64.24,0.68 95.93,2.75 10.72,0.7 21.34,1.532 31.85,2.551 3.78,-58.301 -7.65,-109.441 -31.85,-156.512 -13.51,-26.238 -30.99,-51.211 -52.03,-75.437 -24.32,-12.301 -51.07,-21.723 -78.84,-27.883 z m -176.18,7.102 c -18.61,5.839 -36.52,13.238 -53.59,22.058 -9.13,4.699 -18.01,9.821 -26.64,15.301 l -1.05,0.66 1.05,2.68 c 8.04,20.34 16.97,40.121 26.64,59.441 16.07,32.09 34.18,62.949 53.59,93.098 13.63,21.203 27.91,42.051 42.57,62.742 45.07,-3.91 89.68,-6.762 133.61,-7.941 8.82,-0.231 17.6,-0.41 26.35,-0.52 -7,-23.91 -15.81,-49.73 -26.35,-75.871 -27.95,-69.277 -68.13,-140.73 -119.33,-184.258 -19.53,2.59 -38.53,6.84 -56.85,12.61 z m -151.44,97.8 c -32.99,36.879 -57.87,80.891 -72.27,129.391 17.32,-41.203 41.76,-77.301 72.27,-107.633 20.97,-20.859 44.82,-39.008 71.21,-54.16 l 1.04,-0.617 -1.04,-2.391 c -2.8,-6.48 -5.49,-13.062 -8.08,-19.691 -23.34,15.769 -44.55,34.301 -63.13,55.101 z m -60.33,356.868 c 9.49,-65.821 28.85,-128.129 60.33,-181.848 19.08,-32.621 42.65,-62.051 71.21,-87.18 8.42,-7.41 17.32,-14.449 26.64,-21.101 6.04,-4.309 12.27,-8.442 18.68,-12.399 -6.43,-11.14 -12.66,-22.429 -18.68,-33.859 -7.86,-14.992 -15.3,-30.274 -22.28,-45.852 -1.47,0.84 -2.91,1.7 -4.36,2.539 -27.06,15.981 -50.76,34.692 -71.21,56.032 -41.55,43.359 -69.63,97.621 -84.9,162.07 -5.09,54.879 4.23,112.687 24.57,161.598 z m 60.33,95.721 c 18.78,21.01 40.16,39.71 63.66,55.57 -2.29,-24.88 0.8,-54 7.55,-84.87 6.21,-28.5 15.55,-58.5 26.64,-88.089 15.63,-41.711 34.74,-82.602 53.59,-117.309 11.88,-21.91 23.66,-41.371 34.37,-57.012 -11.72,-16.57 -23.24,-33.281 -34.37,-50.23 -10.61,-16.149 -20.89,-32.5 -30.74,-49.149 -7.9,4.891 -15.54,10.047 -22.85,15.469 -9.36,6.91 -18.24,14.238 -26.64,21.961 -29.08,26.68 -52.59,57.988 -71.21,92.649 -28.78,53.5 -45.92,114.96 -53.93,179.718 14.05,29.692 32.25,57.043 53.93,81.292 z m 71.21,40.48 c 0.02,7.25 0.48,14.11 1.39,20.54 0.93,0.66 1.85,1.38 2.76,2.09 7.37,4.53 14.87,8.77 22.49,12.69 17.32,8.91 35.26,16.22 53.59,21.94 57.2,17.85 118.16,20.19 176.18,7.3 45.05,-10.01 88.35,-29.17 126.7,-57.33 -39.82,17.53 -82.98,25.32 -126.7,25.01 -60.01,-0.44 -121.13,-16.2 -176.18,-43.15 -18.67,-9.14 -36.62,-19.55 -53.59,-31.08 -7.01,-4.74 -13.84,-9.7 -20.49,-14.82 -3.92,20.03 -6.13,38.84 -6.15,55.68 z m 415.24,-19.58 c 2.41,-2.28 4.82,-4.58 7.15,-6.96 2.42,-2.4 4.79,-4.85 7.13,-7.34 33.66,-35.732 59.64,-78.732 75.36,-126.45 -21.2,8.64 -46.89,14.98 -75.36,19.308 -13.52,2.051 -27.66,3.66 -42.24,4.821 -41.39,3.339 -86.38,3.23 -130.87,0.371 -63.8,-4.11 -126.57,-13.93 -176.18,-27.559 -13.57,-3.73 -26.18,-7.723 -37.52,-11.98 -5.62,14.031 -11.07,28.691 -16.07,43.55 -7.53,22.321 -14.07,45.039 -18.7,66.391 2.11,0.52 8.4,5.379 18.7,12.578 12.29,8.61 30.26,20.58 53.59,32.49 36.09,18.47 84.92,36.83 145.15,42.45 10.4,0.97 20.76,1.48 31.03,1.58 46.68,0.34 91.58,-8.6 130.87,-27.48 9.67,-4.64 19.02,-9.9 27.96,-15.77 z m 92.61,-150.11 c 0.63,-2.129 1.2,-4.211 1.8,-6.32 l 0.08,-0.289 c 1.33,-23.781 1.38,-47.57 -0.08,-71.18 -1.51,-23.89 -4.61,-47.601 -9.61,-71.019 -23.09,-4.34 -46.63,-7.762 -70.52,-10.301 l -3.75,-0.41 c -1.8,1.828 -4.97,1.461 -6.39,-0.61 -10.74,-1.05 -21.42,-1.91 -32.1,-2.652 -43.69,-3 -87.15,-3.48 -130.87,-2.25 -44.75,1.25 -89.78,4.293 -135.7,8.32 -13.15,19.27 -27.01,42.891 -40.48,68.93 -12.05,23.313 -23.78,48.59 -34.39,74.41 10.36,3.891 21.9,7.582 34.39,11.031 48.74,13.5 111.86,23.418 176.18,27.649 44.53,2.922 89.6,3.121 130.87,-0.141 14.63,-1.148 28.76,-2.738 42.24,-4.789 29.11,-4.437 55.07,-11.027 75.9,-20.109 0.78,-0.36 1.63,-0.442 2.43,-0.27 z m 7.34,38.36 c -1.79,4.332 -3.62,8.652 -5.54,12.902 -19.32,42.539 -46.66,80.658 -80.13,112.408 -13.17,12.51 -27.31,24 -42.24,34.41 -38.77,26.98 -83.08,46.54 -130.87,56.58 -23.94,5.04 -48.77,7.71 -74.22,7.72 -35.42,0 -69.63,-5.17 -101.96,-14.72 -18.55,-5.49 -36.46,-12.38 -53.59,-20.63 -9.11,-4.38 -17.99,-9.14 -26.64,-14.25 -26.02,-15.34 -49.94,-33.84 -71.21,-55.01 -65.48,-65.09 -106.01,-155.219 -106.02,-254.801 0.01,-99.59 40.54,-189.73 106.02,-254.828 21.27,-21.16 45.19,-39.672 71.21,-55 8.65,-5.102 17.53,-9.859 26.64,-14.25 17.13,-8.242 35.04,-15.141 53.59,-20.609 32.31,-9.563 66.54,-14.723 101.96,-14.723 25.45,0 50.28,2.672 74.22,7.703 47.79,10.039 92.1,29.59 130.87,56.566 14.93,10.411 29.07,21.903 42.24,34.411 33.45,31.75 60.81,69.871 80.13,112.421 1.92,4.25 3.75,8.571 5.54,12.899 16.99,41.812 26.4,87.5 26.4,135.41 0,47.891 -9.41,93.582 -26.4,135.391"
         style="fill:#000000;fill-opacity:1;fill-rule:nonzero;stroke:none"
         id="path92" /><path
         d="m 2359.99,1092.55 -672.23,11.65 v 6.97 l 723.3,12.54 c -17.9,-9.05 -34.96,-19.47 -51.07,-31.16 z m -61.91,-56.5 -610.32,10.57 v 6.98 l 638.15,11.05 c -9.78,-9.03 -19.06,-18.58 -27.83,-28.6 z m -41,-56.851 -569.32,9.86 -0.01,6.961 586.73,10.16 c -6.17,-8.7 -11.99,-17.731 -17.4,-26.981 z m -27.28,-57.109 -542.04,9.39 v 6.969 l 552.94,9.582 c -3.94,-8.472 -7.59,-17.121 -10.9,-25.941 z m -16.45,-57.289 -525.6,9.09 v 6.988 l 531.64,9.211 c -2.29,-8.32 -4.32,-16.738 -6.04,-25.289 z m -6.93,-57.461 -518.66,8.969 v 6.992 l 520.57,9.019 c -0.91,-8.261 -1.55,-16.582 -1.91,-24.98 z m 1.91,-57.59 -520.57,9 v 6.969 l 518.65,9 c 0.37,-8.399 1,-16.731 1.92,-24.969 z m 11.06,-57.789 -531.62,9.219 -0.01,6.961 525.6,9.121 c 1.72,-8.543 3.74,-16.981 6.03,-25.301 z m 21.31,-57.93 -552.95,9.578 0.01,6.973 542.03,9.387 c 3.32,-8.821 6.96,-17.469 10.91,-25.938 z m 33.78,-58.172 -586.73,10.161 v 6.992 l 569.3,9.859 c 5.44,-9.262 11.24,-18.269 17.43,-27.012 z m 51.43,-58.461 -638.15,11.063 v 6.969 l 610.32,10.582 c 8.77,-10.032 18.05,-19.571 27.83,-28.614 z m 85.15,-59.058 -723.3,12.539 0.01,6.973 672.22,11.648 c 16.09,-11.691 33.15,-22.109 51.07,-31.16 v 0"
         style="fill:#000000;fill-opacity:1;fill-rule:evenodd;stroke:none"
         id="path94" /><path
         d="m 3649.71,1039.18 c -0.37,7.07 -1.14,14.05 -2.29,21 -0.19,1.17 -0.39,2.34 -0.6,3.51 l -0.04,0.17 0.64,3.15 c 2.03,10.12 3.65,20.29 4.88,30.56 1.06,8.93 1.86,17.92 2.35,26.96 0.37,6.27 0.58,12.6 0.7,18.96 1.6,-12.22 2.46,-24.64 2.46,-37.3 0,-18.95 -1.91,-37.48 -5.51,-55.4 -0.78,-3.91 -1.64,-7.77 -2.59,-11.61 z m -8.5,-25.94 c -12.4,-36.002 -32.15,-69.51 -57.77,-97.56 -10.55,-11.52 -22.07,-22.141 -34.51,-31.641 -7.78,-5.93 -15.9,-11.418 -24.38,-16.437 9.32,11.75 17.42,23.796 24.38,36.168 24.45,43.531 34.47,91.16 30.99,144.28 l 3.52,0.37 c 19.53,2.11 38.77,4.91 57.61,8.45 2.15,-13.78 1.2,-29.72 0.16,-43.63 z M 3438.65,832.73 c -28.18,-6.64 -57.42,-8.859 -86.27,-5.98 36.45,33.031 64.98,82.84 86.27,133.27 12.01,28.441 21.74,57.08 29.24,83.01 7.01,-0.04 14.02,-0.04 21,0.06 20.27,0.21 40.29,0.95 60.04,2.3 8.12,0.57 16.19,1.23 24.21,1.99 2.78,-42.94 -6.48,-83.04 -24.21,-119.88 -12.37,-25.68 -28.83,-49.781 -48.25,-72.148 -19.61,-9.903 -40.5,-17.563 -62.03,-22.622 z m -144.69,6.282 c -15.39,4.699 -29.96,10.769 -44.16,18.207 -7.12,3.73 -14.14,7.812 -21.13,12.23 l -1.68,1.082 1.68,4.258 c 6.43,16.051 13.52,31.66 21.13,46.891 6.9,13.781 14.24,27.269 21.94,40.519 7.13,12.262 14.55,24.321 22.22,36.242 11.25,17.469 23.03,34.629 35.06,51.619 36.98,-3.19 73.58,-5.55 109.63,-6.54 7.4,-0.2 14.81,-0.34 22.15,-0.42 -6.33,-21.62 -13.63,-43.139 -22.15,-64.131 -22.95,-56.528 -54.92,-109.18 -101.93,-149.149 -15.06,2.012 -29.22,5.059 -42.76,9.192 z m -65.29,15.777 c -9.39,5.742 -18.46,11.992 -27.11,18.723 -10.17,7.886 -19.78,16.429 -28.81,25.57 9.05,-8.922 18.66,-17.391 28.81,-25.293 8.67,-6.758 17.72,-13.109 27.11,-18.969 l 1.68,-1.031 z m -119,171.551 c 8.59,-20.46 18.98,-38.981 31.05,-55.68 17.13,-23.75 37.56,-43.84 60.84,-60.64 8.65,-6.239 17.7,-12.032 27.11,-17.379 l 0.06,-0.032 -0.06,-0.121 c -2.6,-6.008 -5.08,-12.039 -7.5,-18.117 -6.74,4.578 -13.3,9.438 -19.61,14.578 -7.5,6.09 -14.67,12.563 -21.48,19.371 -32.46,32.461 -56.99,72.871 -70.41,118.02 z m -11.58,79.85 c 0,38.11 7.61,74.42 21.42,107.56 7.97,-55.05 23.77,-103.61 46.8,-144.54 10.31,-18.37 22.09,-35.21 35.25,-50.42 8.46,-9.8 17.5,-18.911 27.11,-27.329 6.76,-5.922 13.81,-11.5 21.13,-16.731 5,-3.582 10.14,-6.98 15.41,-10.218 -5.25,-9.051 -10.42,-17.672 -15.41,-26.332 -6.69,-11.621 -13.04,-23.321 -18.82,-36.301 l -2.31,1.32 c -9.47,5.5 -18.51,11.211 -27.11,17.321 -21.05,14.941 -39.51,32.191 -55.31,54.128 -21.15,29.282 -37.13,64.332 -46.99,105.972 -0.76,8.43 -1.17,16.95 -1.17,25.57 z m 81.99,197.89 c 6.8,6.83 13.98,13.3 21.48,19.4 6.45,5.25 13.17,10.22 20.08,14.88 -1.87,-20.39 0.96,-45.18 7.03,-71.9 3.93,-17.3 9.22,-35.41 15.45,-53.65 1.82,-5.31 3.71,-10.64 5.68,-15.96 12.66,-34.14 28.25,-68.14 44.16,-97.58 9.52,-17.59 19.15,-33.57 28.34,-46.97 -9.66,-13.66 -19.16,-26.64 -28.34,-39.82 -8.75,-12.57 -17.2,-25.308 -25.29,-39.031 -6.48,3.992 -12.77,8.16 -18.87,12.551 -7.32,5.281 -14.37,10.859 -21.13,16.77 -9.65,8.46 -18.69,17.58 -27.11,27.5 -10.8,12.72 -20.58,26.73 -29.31,42.24 -24.11,42.9 -40.22,94.39 -47.46,153.1 13.82,29.31 32.61,55.84 55.29,78.47 z m 48.59,36.31 c 0.1,0.82 0.2,1.63 0.31,2.43 0.79,0.61 1.55,1.18 2.31,1.79 6.03,3.71 12.21,7.2 18.51,10.46 14.07,7.25 28.83,13.35 44.16,18.17 26.51,8.32 54.73,12.82 83.99,12.82 20.94,0 41.21,-2.02 60.7,-5.99 38.17,-7.78 73.24,-23.1 103.93,-45.63 -31.82,14.02 -67.05,18.96 -103.93,18.02 -8.49,-0.21 -17.09,-0.74 -25.76,-1.55 -39.96,-3.73 -80.7,-15.23 -118.93,-33.92 -15.19,-7.42 -29.98,-15.98 -44.16,-25.64 -5.72,-3.9 -11.34,-7.97 -16.85,-12.23 -1.99,10.1 -3.44,19.82 -4.28,29.02 -1.05,11.69 -1.11,22.55 0,32.25 z m 341.25,-30.57 c 1.99,-1.9 3.95,-3.79 5.92,-5.74 2.6,-2.6 5.12,-5.22 7.6,-7.87 26.72,-28.5 46.79,-60.04 59.47,-98.5 -16.19,6.58 -36.48,10.98 -59.47,13.79 -10.94,1.33 -22.5,2.31 -34.51,2.97 -26.47,1.47 -55.16,1.44 -84.54,0.53 -8.55,-0.25 -17.14,-0.65 -25.74,-1.17 -51.25,-3.09 -102.52,-10.7 -144.69,-22.4 -10.97,-3.05 -21.32,-6.37 -30.91,-9.97 -4.46,11.13 -8.66,22.35 -12.48,33.52 l -0.77,2.24 c -6.32,18.76 -11.6,37.27 -15.39,54.83 0.45,0.12 0.92,0.34 1.33,0.65 4.61,3.59 9.3,7.05 14.06,10.39 14.16,9.91 28.95,18.69 44.16,26.3 38.34,19.2 79.36,30.98 119.56,34.75 8.41,0.78 16.81,1.19 25.13,1.27 39.42,0.35 77.33,-7.32 110.28,-23.61 7.24,-3.58 14.25,-7.56 20.99,-11.98 z m 77.5,-137.14 c 0.9,-13.21 0.82,-27.61 0,-42.05 -1.31,-23.27 -4.51,-46.6 -8.47,-65.1 -18.13,-3.42 -36.74,-6.39 -55.51,-8.81 -11.47,-1.47 -22.99,-2.74 -34.51,-3.77 -20.2,-1.8 -40.36,-2.87 -60.08,-3.09 -16.56,-0.17 -33.3,-0.02 -50.2,0.45 -36.52,1.02 -73.73,3.45 -111.36,6.76 -10.83,15.86 -22.23,35.3 -33.33,56.76 -9.92,19.2 -19.58,40.02 -28.33,61.33 8.82,3.3 18.3,6.36 28.33,9.2 41.94,11.83 93.31,19.54 144.69,22.66 8.67,0.53 17.33,0.93 25.94,1.2 23.96,0.73 54.06,-0.39 84.34,-3.61 11.58,-1.23 23.2,-2.77 34.51,-4.63 23.18,-3.83 45.1,-9 62.89,-15.69 0.47,-3.74 0.82,-7.63 1.09,-11.61 z m 4.88,58.78 c -1.58,3.35 -3.2,6.66 -4.88,9.95 -16.31,31.6 -38.04,59.93 -63.98,83.77 -10.8,9.93 -22.33,19.08 -34.51,27.36 -32.72,22.25 -70.06,38.18 -110.28,46.12 -18.88,3.73 -38.42,5.71 -58.42,5.71 -29.98,0 -58.94,-4.43 -86.27,-12.6 -15.25,-4.57 -30.01,-10.31 -44.16,-17.12 -7.2,-3.49 -14.25,-7.27 -21.13,-11.29 -9.37,-5.49 -18.44,-11.47 -27.11,-17.91 -73.88,-54.74 -121.77,-142.54 -121.77,-241.52 0,-98.99 47.89,-186.801 121.77,-241.551 8.67,-6.438 17.74,-12.418 27.11,-17.91 6.88,-4.02 13.93,-7.797 21.13,-11.278 14.15,-6.82 28.91,-12.562 44.16,-17.132 27.33,-8.168 56.29,-12.579 86.27,-12.579 20,0 39.54,1.969 58.42,5.7 40.22,7.929 77.56,23.879 110.28,46.121 12.18,8.269 23.71,17.429 34.51,27.359 25.94,23.828 47.67,52.16 63.98,83.781 1.68,3.27 3.3,6.59 4.88,9.93 18.19,38.719 28.38,81.949 28.38,127.559 0,45.6 -10.19,88.81 -28.38,127.53"
         style="fill:#000000;fill-opacity:1;fill-rule:nonzero;stroke:none"
         id="path96" /><path
         d="M 3972.13,477.941 3867.91,592.48 3604.96,881.461 c -5.47,-5.5 -11.11,-10.82 -16.97,-15.91 l 279.92,-282.442 104.22,-105.168"
         style="fill:#000000;fill-opacity:1;fill-rule:nonzero;stroke:none"
         id="path98" /><path
         d="m 4181.25,348.699 -313.34,413 -186.46,245.741 c -2.95,-9.241 -6.31,-18.28 -10.06,-27.12 l 196.52,-243.449 313.34,-388.172"
         style="fill:#000000;fill-opacity:1;fill-rule:nonzero;stroke:none"
         id="path100" /><path
         d="m 3867.91,850.82 301.58,-445.73 -301.58,477.84 -177.07,280.53 c 3.67,-19.2 5.61,-39.01 5.62,-59.27 l 171.45,-253.37"
         style="fill:#000000;fill-opacity:1;fill-rule:nonzero;stroke:none"
         id="path102" /><path
         d="m 3360.33,788.328 c -16.74,1.043 -33.12,3.383 -49.04,6.922 l 556.62,-420.789 177.05,-133.84 -177.05,141.649 -507.58,406.058"
         style="fill:#000000;fill-opacity:1;fill-rule:nonzero;stroke:none"
         id="path104" /><path
         d="m 3481.09,804.121 c -6.5,-2.191 -13.12,-4.152 -19.8,-5.922 L 3867.91,449.32 4091.95,257.07 3867.91,457.719 3481.09,804.121"
         style="fill:#000000;fill-opacity:1;fill-rule:nonzero;stroke:none"
         id="path106" /><path
         d="m 3651.05,940.59 c -3.22,-5.34 -6.62,-10.57 -10.15,-15.692 l 227.01,-260.589 285.14,-327.36 -285.14,342.891 -216.86,260.75"
         style="fill:#000000;fill-opacity:1;fill-rule:nonzero;stroke:none"
         id="path108" /><path
         d="m 4040.25,351.039 -172.34,164.602 -329.36,314.507 c -5.66,-3.277 -11.42,-6.378 -17.3,-9.32 l 346.66,-313.769 172.34,-156.02"
         style="fill:#000000;fill-opacity:1;fill-rule:nonzero;stroke:none"
         id="path110" /><path
         d="m 3868.42,815.648 c 104.76,-12.699 185.96,-101.949 185.96,-210.117 0,-116.902 -94.81,-211.691 -211.7,-211.691 -92.84,0 -171.72,59.801 -200.28,142.961 30.28,-75.813 104.42,-129.422 191.04,-129.422 113.53,0 205.6,92.09 205.6,205.633 0,101.609 -73.73,186.019 -170.62,202.636"
         style="fill:#000000;fill-opacity:1;fill-rule:nonzero;stroke:none"
         id="path112" /><path
         d="m 4018.32,625.969 c 89.9,-10.91 159.57,-87.5 159.57,-180.328 0,-100.321 -81.37,-181.672 -181.66,-181.672 -79.69,0 -147.38,51.32 -171.87,122.679 25.97,-65.058 89.59,-111.046 163.92,-111.046 97.44,0 176.45,79.007 176.45,176.457 0,87.211 -63.27,159.64 -146.41,173.91"
         style="fill:#000000;fill-opacity:1;fill-rule:nonzero;stroke:none"
         id="path114" /><path
         d="m 4144.43,468.539 c 73.56,-8.918 130.57,-71.598 130.57,-147.551 0,-82.078 -66.58,-148.656 -148.65,-148.656 -65.2,0 -120.59,41.988 -140.65,100.379 21.27,-53.231 73.32,-90.859 134.14,-90.859 79.73,0 144.38,64.648 144.38,144.386 0,71.364 -51.76,130.633 -119.79,142.301"
         style="fill:#000000;fill-opacity:1;fill-rule:nonzero;stroke:none"
         id="path116" /></g></g></svg>
